<?xml version="1.0" standalone="no"?>
<!DOCTYPE svg PUBLIC "-//W3C//DTD SVG 20010904//EN"
 "http://www.w3.org/TR/2001/REC-SVG-20010904/DTD/svg10.dtd">
<svg version="1.0" xmlns="http://www.w3.org/2000/svg"
 width="1024.000000pt" height="1024.000000pt" viewBox="0 0 1024.000000 1024.000000"
 preserveAspectRatio="xMidYMid meet">

<g transform="translate(0.000000,1024.000000) scale(0.100000,-0.100000)"
fill="#000000" stroke="none">
<path d="M0 5120 l0 -5120 5120 0 5120 0 0 5120 0 5120 -5120 0 -5120 0 0
-5120z m4258 2112 l342 -2 0 -230 0 -230 -430 0 -430 0 -2 -1130 -3 -1130
-268 -2 c-173 -2 -267 1 -268 7 0 6 0 515 0 1133 l0 1122 -439 0 -440 0 0 233
0 232 798 0 c438 -1 951 -2 1140 -3z m720 -1934 l-3 -1943 -27 -3 -28 -3 0
1945 0 1946 30 0 30 0 -2 -1942z m2678 747 c7 -18 76 90 -741 -1156 -368 -562
-671 -1026 -673 -1031 -2 -4 306 -9 685 -10 l688 -3 3 -228 2 -227 -1157 2
-1158 3 -3 23 c-3 16 201 323 727 1101 402 594 731 1082 731 1085 0 3 -282 7
-627 8 l-628 3 0 215 0 215 535 5 c1256 12 1610 11 1616 -5z"/>
</g>
</svg>
